<svg width="358" height="217" viewBox="0 0 358 217" fill="none" xmlns="http://www.w3.org/2000/svg">
<rect width="263" height="164" transform="matrix(1 0 0 -1 47 172)" fill="#4B4747"/>
<rect width="157.627" height="12.7129" transform="matrix(-1 0 0 1 302 98.5891)" fill="#B93E3E"/>
<rect width="37.1185" height="12.7129" transform="matrix(-1 0 0 1 95.5601 98.5891)" fill="#1BFD9C"/>
<rect width="137.288" height="12.7129" transform="matrix(-1 0 0 1 302 121.266)" fill="#1BFD9C"/>
<rect width="57.4574" height="12.7129" transform="matrix(-1 0 0 1 152.962 121.266)" fill="#FFCE44"/>
<rect width="27.3562" height="12.5885" transform="matrix(-1 0 0 1 85.3564 121.249)" fill="#B93E3E"/>
<rect width="107.796" height="12.7129" transform="matrix(-1 0 0 1 302 144.287)" fill="#FFCE44"/>
<rect width="86.9489" height="12.7129" transform="matrix(-1 0 0 1 146.916 144.287)" fill="#1BFD9C"/>
<rect x="60" y="20" width="156.335" height="14.331" fill="#B93E3E"/>
<rect x="264.748" y="20" width="36.8143" height="14.331" fill="#1BFD9C"/>
<rect x="60" y="45.5633" width="136.162" height="14.331" fill="#1BFD9C"/>
<rect x="207.816" y="45.5633" width="56.9865" height="14.331" fill="#FFCE44"/>
<rect x="274.868" y="45.5433" width="27.132" height="14.1907" fill="#B93E3E"/>
<rect x="60" y="71.5139" width="106.913" height="14.331" fill="#FFCE44"/>
<rect x="213.813" y="71.5139" width="86.2362" height="14.331" fill="#1BFD9C"/>
<path d="M43.5 182.5L2 210H152L156.5 213H200.5L203.5 210H355.5L314.5 182.5H43.5Z" fill="#5F4C4C" stroke="black"/>
<path fill-rule="evenodd" clip-rule="evenodd" d="M49 0.408171C48.175 0.714171 46.712 1.65117 45.75 2.48917C44.108 3.92017 44 9.51517 44 93.3312V182.648L57.75 182.926C65.313 183.079 126.063 183.088 192.75 182.946L314 182.688V93.8072C314 7.78616 313.938 4.85017 312.088 2.56517L310.177 0.204171L180.338 0.027171C108.927 -0.069829 49.825 0.101171 49 0.408171ZM310 90.2042V171.704H179H48V90.2042V8.70417H179H310V90.2042ZM74.468 185.704C67.097 186.163 66.005 186.52 61.218 190.039C58.348 192.149 56 194.065 56 194.297C56 194.529 67.7 194.604 82.001 194.462C96.301 194.32 108.001 194.429 108 194.704C107.999 194.979 112.162 195.055 117.249 194.872C124.06 194.628 127.023 194.1 128.483 192.872C130.351 191.3 130.387 191.305 129.11 192.954C127.616 194.883 124.705 194.777 187.749 195.085C211.36 195.201 211.998 195.151 212.029 193.204C212.058 191.404 212.16 191.374 213.052 192.904C213.961 194.463 217.701 194.604 258.179 194.611C282.454 194.615 301.906 194.266 301.407 193.835C300.908 193.404 298.115 191.343 295.2 189.256L289.9 185.46L186.2 185.332C129.165 185.262 78.885 185.429 74.468 185.704ZM172.728 208.426C174.503 208.647 177.653 208.65 179.728 208.434C181.802 208.217 180.35 208.037 176.5 208.032C172.65 208.028 170.952 208.205 172.728 208.426ZM1 210.246C1 211.094 1.926 212.781 3.057 213.996L5.114 216.204L178.585 216.462C343.334 216.708 352.089 216.632 352.703 214.962C353.058 213.995 353.946 212.844 354.675 212.404C355.404 211.964 356 210.952 356 210.154C356 208.9 345.682 208.704 279.611 208.704C207.474 208.704 203.23 208.801 203.361 210.454C203.489 212.071 201.609 212.224 178.629 212.472C154.113 212.736 153.765 212.711 154.285 210.722C154.811 208.711 154.546 208.704 77.906 208.704C9.285 208.704 1 208.87 1 210.246Z" fill="black"/>
</svg>
