<svg width="250" height="250" viewBox="0 0 250 250" fill="none" xmlns="http://www.w3.org/2000/svg">
<g clip-path="url(#clip0_504_10)">
<rect width="250" height="250" fill="#B9CCED"/>
<ellipse cx="231.332" cy="226.225" rx="54.6675" ry="51.144" fill="#A7C5EB"/>
<ellipse cx="40.2099" cy="61.7956" rx="104.21" ry="89.7956" fill="#A7C5EB"/>
<path fill-rule="evenodd" clip-rule="evenodd" d="M74.6906 53.7518C63.4101 57.7363 54.5277 65.7654 49.469 76.5471C47.4641 80.8203 47 83.7559 47 92.1793C46.9989 101.68 47.3013 103.154 50.5988 109.742C54.8667 118.266 61.8184 124.96 70.6199 129.018C76.1129 131.549 78.3027 131.915 87.9827 131.915C97.7922 131.915 99.7605 131.576 105.188 128.954C113.013 125.176 121.006 117.315 124.848 109.621C127.543 104.226 127.859 102.396 127.859 92.1564C127.859 81.6732 127.588 80.194 124.618 74.4252C120.598 66.6183 112.603 59.1306 104.285 55.3824C95.9136 51.6092 82.801 50.887 74.6906 53.7518ZM102.721 63.967C126.624 75.3707 126.212 109.573 102.03 121.251C93.6052 125.32 81.7321 125.555 73.9961 121.807C50.0406 110.2 48.2384 78.3607 70.7595 64.6293C80.4372 58.7276 91.2691 58.5032 102.721 63.967ZM121.171 125.969L115.674 131.461L124.665 140.129C134.675 149.781 194.28 200.383 198.761 195.694C203.145 191.104 145.883 138.52 136.528 129.067C131.853 124.342 127.723 120.478 127.348 120.478C126.974 120.478 124.195 122.949 121.171 125.969Z" fill="black"/>
<path opacity="0.2" fill-rule="evenodd" clip-rule="evenodd" d="M54.062 -61.5813C50.9229 -60.8189 45.5526 -59.4651 42.1281 -58.5719C38.7036 -57.6798 33.0168 -56.9422 29.4906 -56.9339C18.5425 -56.9059 7.61618 -54.8716 -0.733418 -51.3062C-9.32585 -47.636 -21.0948 -43.3423 -35.1831 -38.7354C-62.6228 -29.7611 -84.1547 -16.9963 -91.2757 -5.47946C-92.5562 -3.4068 -95.987 -0.780187 -100.527 1.60472C-105.293 4.10789 -109.078 7.05608 -111.675 10.2854C-113.838 12.9753 -117.392 17.1154 -119.574 19.4858C-127.682 28.2983 -134.802 40.3763 -134.804 45.3204C-134.805 46.4926 -136.894 50.417 -139.447 54.0416C-145.167 62.161 -148.896 71.6467 -150.773 82.8513C-151.921 89.7073 -152.826 92.1026 -155.355 94.9813C-159.562 99.7718 -165.582 110.67 -167.486 116.948C-169.267 122.814 -169.525 133.888 -168.004 139.152C-167.428 141.145 -166.443 148.378 -165.815 155.224C-165.147 162.505 -163.804 169.996 -162.579 173.271C-161.038 177.391 -160.431 181.776 -160.28 189.869C-160.102 199.373 -159.62 202.11 -156.731 210.002C-150.759 226.312 -147.501 232.043 -140.46 238.628C-134.298 244.39 -133.559 244.775 -127.363 245.459C-123.752 245.857 -115.192 247.144 -108.343 248.319C-91.0193 251.289 -79.1944 251.222 -69.9554 248.106C-65.9643 246.76 -60.2308 244.567 -57.2131 243.232C-54.1964 241.898 -51.3509 240.807 -50.8892 240.807C-50.4284 240.807 -49.29 243.547 -48.3581 246.896C-46.5286 253.475 -40.6986 261.777 -35.1218 265.747C-32.6998 267.472 -29.6654 268.298 -23.8936 268.807C-17.6184 269.36 -14.3775 270.327 -8.20198 273.49C11.9093 283.79 15.5559 285.45 21.3319 286.936C29.228 288.966 48.4676 289.019 57.8944 287.036C61.79 286.218 68.6961 284.367 73.2414 282.924L81.5059 280.301L83.9581 282.597C85.3061 283.861 88.5552 288.163 91.1766 292.157C93.7989 296.151 97.8616 301.519 100.206 304.086C105.107 309.454 114.768 323.873 118.784 331.813C120.292 334.797 122.05 339.698 122.69 342.706C123.974 348.738 124.835 349.691 129.018 349.715L131.853 349.731L127.849 338.369C123.45 325.885 120.347 320.006 114.489 313.061C100.804 296.834 95.9615 290.319 92.5049 283.475C88.4349 275.42 94.6073 274.721 100.281 282.594C102.015 285.001 106.808 289.304 110.934 292.157C115.906 295.595 122.639 302.066 130.901 311.348C144.097 326.173 151.631 337.028 153.758 344.284C155.049 348.686 155.058 348.693 160.075 348.693C162.838 348.693 165.099 348.408 165.099 348.059C165.099 345.764 154.776 326.369 150.943 321.462C148.38 318.182 146.54 315.498 146.855 315.498C147.17 315.498 151.455 316.665 156.379 318.091C172.161 322.663 193.311 321.505 211.764 315.061C215.8 313.651 220.377 311.603 221.936 310.509C223.494 309.415 228.738 306.293 233.59 303.571C252.03 293.221 263.529 282.147 266.853 271.54C267.591 269.186 269.708 264.459 271.559 261.036C273.41 257.612 276.179 250.61 277.715 245.475C279.251 240.34 281.203 234.574 282.053 232.661C284.177 227.884 290.286 221.334 294.746 219.052C307.85 212.35 320.552 195.842 326.296 178.046C330.319 165.581 332.315 135.607 330.05 121.654C327.986 108.94 322.871 97.5705 316.729 92.0434C315.521 90.9563 314.533 89.4573 314.533 88.7114C314.533 86.0122 310.279 76.0815 306.112 69.0481C303.77 65.0957 298.488 58.5749 294.375 54.5582C288.907 49.2178 285.805 45.0756 282.833 39.145C280.598 34.6843 275.959 27.8429 272.524 23.9424C266.561 17.1704 254.056 6.83824 248.096 3.75725C246.557 2.96159 244.722 0.920055 244.017 -0.778115C242.225 -5.10394 230.905 -15.684 224.738 -18.7972C221.902 -20.2287 214.377 -23.5265 208.019 -26.1251C201.66 -28.7248 192.554 -32.9593 187.783 -35.5361C178.179 -40.724 166.233 -45.5063 162.876 -45.5063C161.679 -45.5063 156.436 -47.5582 151.225 -50.0666C135.581 -57.5968 129.529 -59.0512 109.581 -60.0761C99.8779 -60.5751 87.97 -61.4651 83.1185 -62.0544C71.5271 -63.4621 61.1082 -63.293 54.062 -61.5813ZM92.6802 -57.1103C93.3942 -56.3966 92.7082 -55.5262 90.5539 -54.4121C88.2657 -53.2295 84.4282 -52.7679 76.889 -52.7679C71.0061 -52.7679 63.1972 -52.0386 59.095 -51.106C51.2632 -49.3248 49.193 -49.9099 50.3563 -53.5739C50.9914 -55.5739 55.4951 -57.298 62.8827 -58.3696C68.4325 -59.1746 91.5937 -58.1964 92.6802 -57.1103ZM125.215 -53.7461C134.541 -52.0842 148.496 -47.6619 148.496 -46.3673C148.496 -44.9347 135.832 -45.8528 116.845 -48.6609C93.637 -52.0936 92.0991 -52.5718 99.2034 -54.1424C103.344 -55.0584 119.204 -54.8167 125.215 -53.7461ZM43.6484 -50.7616C45.8784 -46.5955 45.2112 -46.3134 34.9594 -47.082C24.0393 -47.9005 18.5663 -46.5955 3.21308 -39.5165C-10.2245 -33.3203 -10.9655 -33.2342 -7.45068 -38.2727C-0.28098 -48.5541 10.1783 -52.5324 30.4172 -52.6797C41.4245 -52.7596 42.675 -52.578 43.6484 -50.7616ZM92.0078 -45.4057C95.3949 -44.7801 98.5091 -43.7303 98.9284 -43.0716C99.3476 -42.4139 99.6973 -39.001 99.7067 -35.4884L99.7223 -29.1003L90.8725 -23.1531C77.2128 -13.9734 67.9988 -2.87982 65.4968 7.39945C64.8721 9.96694 63.9433 16.7918 63.4327 22.5658C62.285 35.5463 61.0688 38.5205 53.7144 46.3298C50.5057 49.7365 45.8857 56.1734 43.447 60.633C37.0494 72.3366 36.2254 73.2775 33.5979 71.8718C32.4076 71.2349 30.4007 68.5813 29.1388 65.9744C25.2566 57.9576 25.6541 61.6787 29.6504 70.765C35.084 83.119 36.5928 90.8069 37.3701 110.099L38.0591 127.215L40.0682 120.837L42.0772 114.458L45.0866 116.989C46.7418 118.381 48.2756 119.342 48.4935 119.123C48.7125 118.904 47.545 115.734 45.8992 112.078C44.2534 108.422 42.07 101.844 41.0467 97.4616C39.2618 89.81 39.2608 89.2208 41.0385 82.6553C44.7369 68.9994 53.4062 54.1235 62.1387 46.4501C68.6152 40.7602 71.0476 40.4572 80.0053 44.226C83.3956 45.6524 86.4891 46.8194 86.8803 46.8194C88.9361 46.8194 82.9017 42.1015 78.154 39.9967C71.69 37.1314 69.6073 33.4052 69.6643 24.8086C69.7567 10.9224 75.6822 -3.97839 84.1314 -11.5719C90.336 -17.1488 101.78 -24.0608 107.765 -25.8461C112.778 -27.342 113.152 -27.9883 109.84 -29.4406C107.93 -30.2777 107.456 -31.4085 107.235 -35.6513C106.792 -44.1691 106.746 -44.1504 123.269 -42.0799C131.151 -41.0923 140.488 -40.2925 144.018 -40.3018C147.548 -40.3112 151.666 -39.8516 153.17 -39.28C155.815 -38.2748 167.41 -29.4115 167.97 -27.9675C168.355 -26.9727 158.924 -23.7102 155.682 -23.7164C154.102 -23.7195 150.543 -25.6365 146.973 -28.4063C141.216 -32.8763 136.61 -35.0071 135.376 -33.7737C135.061 -33.4593 136.631 -32.2705 138.866 -31.1315C144.131 -28.4457 145.451 -26.7548 146.109 -21.8533C146.8 -16.7048 144.966 -15.1788 128.779 -7.42971C122.215 -4.28753 114.616 -0.0841165 111.891 1.91074C108.338 4.51246 106.261 5.36829 104.546 4.93675C102.071 4.3164 99.7223 0.469839 99.7223 -2.96177C99.7223 -4.04271 99.2553 -5.21493 98.6845 -5.56764C95.4676 -7.55524 99.5759 5.12866 104.733 13.105C114.828 28.7174 118.059 38.5537 116.259 48.1856C115.069 54.5509 112.091 58.3415 100.481 68.267C93.1181 74.5628 91.4515 76.4529 93.0258 76.7267C95.9107 77.2267 97.6468 79.8762 97.6468 83.7787C97.6468 85.6304 98.5777 91.0258 99.715 95.7697C102.415 107.028 102.38 109.714 99.5126 111.248C98.256 111.92 91.8345 114.217 85.2438 116.352C78.6532 118.486 68.5903 122.597 62.8827 125.486C46.3444 133.86 37.5652 137.322 34.6969 136.603C32.087 135.948 28.375 129.013 24.9536 118.398C23.8059 114.838 23.37 114.284 23.1178 116.062C22.9352 117.345 23.9864 122.205 25.4527 126.863C29.9866 141.261 28.7392 147.444 21.3018 147.444C16.5044 147.444 9.93654 141.466 6.48712 133.958C3.0325 126.439 2.28016 109.345 4.72713 94.0196C5.6393 88.3141 7.05684 77.5774 7.87769 70.1602C9.43429 56.1039 11.2441 48.4512 14.0128 44.227C14.9114 42.8567 18.8963 39.8379 22.8688 37.5194C29.0174 33.9291 32.4658 31.2589 30.9527 31.2589C30.7327 31.2589 27.6164 32.4508 24.03 33.9083C20.4426 35.3658 17.2879 36.3379 17.0191 36.0702C16.2657 35.3171 19.8158 18.9205 21.9961 13.079C26.3909 1.307 37.7956 -14.1425 46.9909 -20.7806C48.836 -22.1126 53.3999 -24.4622 57.1337 -26.0017C64.9323 -29.2175 63.7939 -29.5443 52.3923 -27.3627C43.0288 -25.5722 41.9226 -26.204 44.3301 -31.9655C46.4409 -37.0175 50.3853 -40.891 56.5422 -43.9575C61.1798 -46.2677 63.0197 -46.5437 73.7924 -46.5437C80.4246 -46.5437 88.6217 -46.0322 92.0078 -45.4057ZM37.4583 -41.4699C40.972 -40.4989 41.2668 -37.0943 38.1515 -33.4728C35.6443 -30.5599 35.5665 -30.5443 30.3519 -31.8794C27.4545 -32.6222 24.5499 -32.8992 23.8961 -32.4956C22.216 -31.4562 24.7813 -29.9821 28.3044 -29.9613C34.6294 -29.925 36.0376 -23.206 31.1561 -16.3532C29.1668 -13.5606 28.4653 -13.2452 25.6437 -13.877C16.5127 -15.9216 4.94713 -15.5876 -6.56237 -12.9475C-12.8863 -11.4962 -21.0958 -9.83121 -24.8057 -9.24718C-28.5156 -8.6621 -32.9208 -7.87475 -34.5957 -7.49611L-37.6404 -6.80937L-34.823 -11.6145C-30.9325 -18.2505 -33.7313 -16.8324 -40.0064 -8.98783C-43.13 -5.08422 -46.6178 -1.99287 -49.1925 -0.84554C-51.4755 0.172117 -57.074 3.81224 -61.6328 7.24385C-66.1926 10.6755 -72.2633 14.7357 -75.1233 16.2669C-93.3573 26.0254 -102.201 35.1252 -104.79 46.7935C-106.32 53.6858 -108.355 56.6111 -109.515 53.5862C-110.493 51.0384 -109.178 36.2289 -107.659 32.6998C-101.271 17.8499 -83.1793 2.91077 -59.3114 -7.22535C-53.746 -9.58847 -46.5483 -12.8531 -43.3158 -14.4797C-33.8496 -19.2422 -15.6322 -25.843 -6.34859 -27.8752C0.243088 -29.3171 3.27016 -30.59 6.62307 -33.3286C11.2431 -37.1026 16.5314 -40.112 20.8483 -41.4253C24.0746 -42.4056 33.9746 -42.4336 37.4583 -41.4699ZM176.196 -36.6607C178.018 -35.9054 181.279 -34.0859 183.441 -32.617C185.604 -31.1481 188.046 -29.9458 188.867 -29.9458C190.534 -29.9458 194.156 -26.9945 194.156 -25.6355C194.156 -22.6085 176.477 -27.87 168.488 -33.2747C164.678 -35.8525 161.986 -38.9325 161.986 -40.7136C161.986 -41.334 171.383 -38.6534 176.196 -36.6607ZM-12.3529 -39.362C-12.3529 -37.8972 -17.5738 -32.0205 -18.874 -32.0205C-19.506 -32.0205 -25.9794 -28.9862 -33.2612 -25.2776C-45.2646 -19.1644 -49.7113 -17.4953 -49.7113 -19.1053C-49.7113 -19.4186 -49.0057 -21.04 -48.1423 -22.7081C-45.5376 -27.7434 -48.8209 -25.4758 -54.2462 -18.4922C-57.2722 -14.5969 -60.0586 -12.1082 -61.8839 -11.6684C-65.4869 -10.8012 -77.9252 -4.75331 -81.8479 -1.96071C-85.4986 0.637891 -86.032 0.652414 -86.032 -1.84972C-86.032 -5.75022 -73.5667 -15.5295 -57.4943 -24.2392C-50.5135 -28.0215 -34.9631 -34.5517 -22.2114 -39.0559C-18.2867 -40.4419 -12.3529 -40.6265 -12.3529 -39.362ZM187.363 -19.6375C205.541 -12.8116 219.787 -3.32589 222.852 3.99481C225.092 9.34348 224.932 9.4524 215.689 8.86732C201.77 7.98764 200.412 7.59448 196.029 3.16804C189.967 -2.95243 175.679 -9.37997 161.727 -12.2618C156.101 -13.4247 155.76 -13.6684 155.76 -16.5336C155.76 -18.9881 156.208 -19.5752 158.095 -19.5877C159.379 -19.596 163.232 -20.5047 166.656 -21.6064C170.081 -22.7081 173.693 -23.6355 174.684 -23.6655C175.676 -23.6967 181.38 -21.8834 187.363 -19.6375ZM212.846 -19.569C220.12 -17.2453 233.564 -8.16624 236.111 -3.85598C239.035 1.09226 237.704 6.36209 233.53 6.36209C232.582 6.36209 230.128 3.83299 228.075 0.741632C224.256 -5.00746 215.873 -11.7472 206.09 -16.931C203.236 -18.4434 200.457 -20.1229 199.915 -20.6634C198.163 -22.4124 206.029 -21.7454 212.846 -19.569ZM20.8338 -10.6414C23.48 -9.58329 25.0055 -8.3094 25.0055 -7.15689C25.0055 -6.1579 23.426 -1.89121 21.4959 2.32568C15.8776 14.6019 9.79335 33.0982 5.76072 50.166C0.767151 71.2961 1.06393 70.6789 -4.09672 70.6789C-10.183 70.6789 -11.7604 69.4693 -16.6305 61.0656C-19.0214 56.9389 -22.5196 51.833 -24.4041 49.7188C-28.994 44.5694 -31.7139 39.0101 -32.6292 32.9083C-33.2259 28.9259 -33.5953 28.2391 -34.383 29.6458C-34.9319 30.6261 -35.3636 33.7237 -35.3418 36.5308L-35.3024 41.6326H-40.2327C-42.9619 41.6326 -46.0637 42.3131 -47.1782 43.1554C-49.014 44.5445 -48.5729 44.6814 -42.1909 44.7115C-35.6749 44.7426 -34.9122 44.9947 -31.1898 48.3568C-26.1973 52.8652 -20.4016 63.4702 -20.8468 67.2815C-21.1114 69.5512 -22.8444 71.1021 -29.9944 75.4705C-44.8786 84.564 -50.2644 92.6202 -53.2282 110.224C-54.9207 120.273 -55.7623 120.743 -70.9849 120.13C-77.4302 119.871 -84.4328 118.966 -87.0697 118.051L-91.7395 116.432L-88.8899 118.919L-86.0393 121.404L-88.0545 124.828C-89.1628 126.712 -90.5752 131.431 -91.1937 135.317C-93.1093 147.352 -95.602 149.377 -106.227 147.527C-115.939 145.836 -123.764 141.879 -127.54 136.745C-130.229 133.09 -130.655 131.613 -130.655 125.922C-130.655 118.788 -128.828 113.972 -125.434 112.156C-122.819 110.758 -121.322 111.629 -121.292 114.569C-121.28 115.819 -120.356 118.009 -119.239 119.435L-117.21 122.029L-117.107 113.73C-116.961 101.92 -115.462 97.7033 -110.391 94.8319C-105.126 91.8515 -103.171 91.8826 -95.9901 95.057C-88.5412 98.3506 -87.8449 98.3268 -92.8914 94.9512C-102.127 88.7757 -108.349 80.5131 -109.49 72.9113C-110.011 69.4382 -110.407 68.6477 -110.91 70.0813C-111.294 71.1758 -110.9 75.458 -110.034 79.5982C-107.947 89.5859 -108.897 91.7779 -116.267 93.9657C-124.997 96.557 -127.392 96.1877 -129.151 91.9781C-131.161 87.1688 -131.048 84.1937 -128.586 77.1935C-125.989 69.8064 -121.605 65.2431 -113.07 61.0396C-107.972 58.5292 -105.002 57.746 -100.575 57.746C-95.2346 57.746 -94.062 58.2211 -85.9894 63.6414C-75.9245 70.4009 -70.8396 72.7536 -66.2943 72.7536H-63.0939L-63.7975 81.4291C-64.2572 87.09 -64.1068 90.7851 -63.3648 92.0621C-62.3997 93.7229 -62.2181 93.391 -62.1672 89.8702C-62.134 87.5548 -60.2588 81.1345 -57.9239 75.347C-53.7367 64.963 -51.2233 51.9316 -53.7035 53.4648C-54.3614 53.8704 -54.9 55.0997 -54.9 56.1962C-54.9 59.163 -58.0786 66.8603 -59.9164 68.3448C-63.8069 71.4849 -75.3132 68.795 -80.9595 63.4256C-84.4826 60.0759 -84.9943 58.996 -84.9943 54.914C-84.9943 49.3973 -81.9454 44.227 -76.8553 41.1139C-74.9895 39.9728 -70.3373 36.5401 -66.5164 33.4872C-51.7826 21.7099 -39.6962 16.4681 -23.2491 14.7191C-14.5176 13.7917 -13.6055 13.8809 -9.22935 16.0895L-4.54916 18.4526L-4.92794 14.4826C-5.20087 11.6184 -4.90821 10.5116 -3.87774 10.5116C-2.19454 10.5116 5.63098 4.28319 4.88485 3.53733C4.60362 3.25724 1.89412 4.4191 -1.13606 6.12038C-5.80067 8.74077 -8.15633 9.30821 -16.5039 9.82794C-38.2257 11.1807 -55.4811 18.3291 -71.2215 32.4965C-73.6342 34.6687 -76.2534 36.4457 -77.0421 36.4457C-79.7942 36.4457 -87.8792 44.6887 -89.8197 49.473C-91.5901 53.8403 -91.9709 54.1629 -94.723 53.6256C-96.3637 53.3061 -98.299 53.0436 -99.0223 53.0436C-102.797 53.0436 -101.283 46.391 -95.5262 37.6844C-89.6786 28.8387 -68.2017 15.6984 -59.5926 15.6984C-58.2207 15.6984 -56.8094 15.2316 -56.4566 14.661C-56.1038 14.0905 -56.5438 13.6237 -57.4331 13.6237C-62.5844 13.6237 -55.9325 6.90048 -45.7088 1.77278C-34.5231 -3.83731 -22.8257 -6.58945 -13.7642 -5.74295C-8.71878 -5.27199 -7.16425 -5.44523 -7.16425 -6.47845C-7.16425 -7.32079 -3.74804 -8.63928 1.91591 -9.98164C13.1847 -12.6539 15.5932 -12.7379 20.8338 -10.6414ZM167.268 -7.21705C174.961 -5.23464 191.482 3.02799 193.863 6.08304C195.621 8.33931 194.792 9.17958 190.271 9.72523C188.127 9.98458 184.167 11.0634 181.47 12.1236C176.581 14.0459 176.557 14.0448 173.469 11.7626C170.985 9.92751 168.977 9.47626 163.325 9.48663C150.692 9.50841 139.155 13.8332 129.483 22.1726C123.754 27.1115 123.305 27.3076 120.785 25.959C117.48 24.1913 113.888 19.4308 112.26 14.661C111.037 11.0759 111.086 10.9701 116.194 6.23761C119.667 3.01866 124.373 0.182488 130.52 -2.39744C147.775 -9.64034 154.463 -10.5169 167.268 -7.21705ZM-91.2207 2.75413C-91.2207 3.62344 -93.2048 6.48865 -95.631 9.12149C-100.59 14.5044 -124.433 34.7621 -124.418 33.5795C-124.388 31.2475 -112.625 17.7389 -103.935 10.0562C-94.0059 1.27795 -91.2207 -0.321666 -91.2207 2.75413ZM252.183 12.1662C255.941 14.217 260.117 16.9007 261.464 18.131C267.606 23.7349 278.726 40.7062 280.772 47.5974C281.358 49.5684 281.072 49.9315 278.941 49.9315C275.201 49.9315 271.561 46.5528 267.476 39.2892C263.265 31.8025 253.934 21.2763 245.649 14.6683C241.754 11.5603 240.296 9.81236 241.149 9.26982C243.357 7.8673 245.19 8.34865 252.183 12.1662ZM211.802 14.7233C216.626 15.328 220.963 16.3779 221.44 17.0573C221.916 17.7358 222.085 23.5015 221.812 29.8688C221.296 41.95 220.49 44.6679 214.327 55.1184L211.575 59.7865L214.54 56.6008C216.17 54.8486 218.551 52.0477 219.831 50.3766L222.156 47.3381L221.532 50.4502C221.19 52.1619 220.245 55.608 219.432 58.1091C218.619 60.6102 218.14 62.8426 218.367 63.0687C220.888 65.5885 229.673 33.3845 229.336 22.8614C229.027 13.2056 229.821 12.4452 237.874 14.6807C244.661 16.5656 260.344 34.6718 266.128 47.3008C268.967 53.5001 270.05 61.216 268.931 67.2804C268.35 70.4351 266.449 73.6322 262.145 78.6915C250.24 92.6897 237.541 101.184 226.576 102.482C217.636 103.541 220.043 105.304 229.439 104.58L237.741 103.94L237.749 109.353C237.754 112.331 238.493 120.135 239.391 126.697C241.596 142.8 241.554 155.913 239.279 162.486C236.405 170.785 231.688 177.103 226.096 180.146C221.57 182.609 220.289 182.822 212.556 182.404C207.858 182.15 202.614 181.66 200.901 181.313C199.189 180.968 201.057 181.747 205.052 183.044C211.225 185.051 212.599 185.943 214.198 188.987C217.033 194.386 216.016 202.719 211.419 211.765C209.39 215.757 208.137 219.022 208.635 219.022C209.134 219.022 212.266 215.988 215.599 212.278C221.257 205.977 222.066 205.458 227.882 204.377C235.42 202.976 250.721 203.762 262.098 206.133C277.553 209.356 288.768 206.605 297.556 197.438C299.985 194.903 302.699 190.702 303.584 188.105C305.664 182.004 305.638 171.594 303.525 164.33C301.733 158.166 302.037 153.732 304.839 145.17C305.969 141.715 306.26 138.506 305.788 134.727C305.196 129.982 303.192 124.329 303.126 127.215C303.032 131.325 300.899 146.292 300.034 148.911C298.586 153.298 295.875 154.905 292.635 153.295C290.416 152.192 290.077 151.163 289.507 143.786C289.156 139.236 288.105 132.979 287.172 129.879C284.682 121.603 284.97 118.012 288.45 114.025C292.252 109.668 295.478 103.299 296.417 98.2977C297.827 90.7841 302.589 92.4656 307.101 102.071C309.8 107.813 311.079 112.103 312.945 121.662C313.24 123.173 315.143 126.398 317.175 128.827C323.307 136.166 325.421 143.651 322.762 148.616C321.876 150.272 321.353 150.442 320.168 149.459C319.352 148.781 318.681 147.468 318.678 146.539C318.668 143.655 316.557 137.07 315.641 137.07C315.163 137.07 314.832 141.621 314.907 147.185C315.004 154.496 314.539 158.675 313.231 162.263C311.261 167.66 310.829 171.307 312.35 169.696C312.861 169.154 314.442 165.442 315.861 161.449C318.243 154.747 318.672 154.187 321.417 154.187H324.392L324.062 160.93C323.04 181.812 311.635 201.591 293.667 213.637C285.044 219.42 272.174 223.187 266.183 221.684C263.445 220.998 263.335 220.269 265.264 215.574C265.863 214.115 264.761 214.478 260.452 217.161C253.924 221.226 251.605 222.374 244.21 225.209C233.753 229.218 213.547 232.499 199.283 232.505C193.246 232.508 191.781 232.941 186.312 236.336C177.895 241.562 167.236 247.031 165.468 247.031C164.666 247.031 160.87 248.6 157.031 250.517C147.155 255.45 141.059 257.208 130.133 258.273C120.251 259.238 102.849 258.211 97.0314 256.32C94.9497 255.644 92.9438 255.628 91.3239 256.275L88.8261 257.273L91.739 257.34C96.7627 257.453 104.024 259.703 104.653 261.341C106.68 266.622 82.4046 276.977 65.7791 277.923C60.3943 278.23 57.3402 278.827 57.4772 279.544C57.8383 281.437 48.9429 283.167 38.4026 283.256C22.3852 283.39 9.58478 279.289 -6.12339 268.992C-10.6106 266.051 -13.3025 265.095 -18.7319 264.515C-27.2506 263.605 -32.79 260.873 -37.6705 255.175C-46.1893 245.225 -45.605 233.065 -35.4861 209.686C-29.2981 195.39 -17.992 181.49 -7.24831 174.973C13.523 162.37 22.9674 156.703 26.5621 154.684C56.9697 137.602 83.4143 125.873 102.45 121.025C115.1 117.804 115.529 117.805 122.552 121.077C130.722 124.884 135.943 125.206 148.39 122.669C156.461 121.023 160.93 120.649 166.424 121.159C176.29 122.076 174.957 120.136 164.033 117.682L155.76 115.823L156.259 112.702C161.041 82.8399 162.262 76.2651 163.248 75.0773C165.295 72.6115 171.68 70.4683 177.033 70.4496C183.571 70.4268 190.29 73.1156 193.641 77.097C197.578 81.7756 197.053 82.4509 190.092 81.6636C183.246 80.8897 177.468 81.7787 179.789 83.2486C180.556 83.7352 182.968 84.1397 185.148 84.1491C192.199 84.1771 200.086 91.2229 205.148 102.015C206.139 104.13 207.342 105.618 207.821 105.323C209.177 104.485 207.582 99.5094 204.936 96.3236C203.618 94.7375 202.25 91.7032 201.895 89.5807C200.278 79.899 198.314 75.0794 194.943 72.5181C187.738 67.0429 185.187 66.296 175.598 66.852C170.68 67.1383 165.441 67.6902 163.956 68.0792C161.343 68.7639 161.234 68.6052 160.594 63.159C159.864 56.9545 156.752 46.4543 154.304 41.9407C152.224 38.1076 152.269 38.786 154.722 48.3755C158.411 62.7969 157.197 90.6575 152.093 108.679C149.852 116.59 147.517 117.747 135.666 116.821C117.483 115.4 109.734 110.491 106.144 98.1203C103.367 88.5517 101.798 80.705 101.798 76.3833C101.798 73.3999 102.481 72.3822 106.208 69.8085C116.607 62.6278 121.387 54.4161 126.61 34.76C128.09 29.1914 135.002 22.7857 144.152 18.5055C150.49 15.5407 151.976 15.2658 161.683 15.2658C171.393 15.2658 172.508 15.4722 174.89 17.7098C176.321 19.0532 178.036 21.8344 178.701 23.8905C179.367 25.9465 181.006 29.8118 182.343 32.4809C183.681 35.149 185.971 40.7508 187.434 44.9293C189.736 51.5083 190.001 51.9004 189.415 47.8568C189.043 45.2893 187.155 38.4292 185.221 32.6116C183.286 26.7941 181.703 21.3251 181.703 20.4589C181.703 18.3696 185.118 16.5905 192.081 15.0563C199.445 13.4317 201.259 13.4017 211.802 14.7233ZM-113.553 36.7051C-113.983 37.9893 -114.622 43.0071 -114.971 47.8568C-115.697 57.9058 -116.063 58.7709 -120.008 59.746C-121.583 60.1351 -124.111 61.6309 -125.625 63.0698L-128.378 65.6871L-129.1 63.4121C-131.368 56.2667 -125.675 42.476 -118.173 36.9437C-113.843 33.7496 -112.54 33.6822 -113.553 36.7051ZM243.601 47.7447C242.691 57.5323 238.687 69.7795 233.724 77.9622C231.481 81.6584 229.819 84.8628 230.029 85.0827C231.038 86.1367 236.119 81.4156 239.169 76.5877C243.623 69.5419 246.047 60.4618 246.027 50.9004C246.005 40.4469 244.465 38.4437 243.601 47.7447ZM284.106 54.7159C289.118 56.4171 294.885 60.188 298.203 63.936C300.057 66.0294 310.382 86.8265 310.382 88.4666C310.382 90.3069 306.263 89.2446 303.111 86.5931C301.307 85.0754 297.695 80.5245 295.085 76.4788C292.474 72.4331 286.804 65.5045 282.484 61.0832C273.921 52.3195 274.17 51.3444 284.106 54.7159ZM-134.506 69.9008C-134.645 77.4601 -134.875 85.2798 -135.017 87.2767C-135.16 89.2737 -134.919 91.9169 -134.482 93.1503C-133.794 95.0892 -134.149 95.4896 -137.1 96.1047C-138.977 96.4958 -141.502 97.4419 -142.711 98.2054C-144.692 99.4565 -145.026 99.3382 -146.084 97.0176C-148.1 92.5943 -147.391 84.8234 -144.023 74.4206C-141.452 66.4817 -136.081 56.1557 -134.523 56.1557C-134.375 56.1557 -134.366 62.3415 -134.506 69.9008ZM282.969 69.8573C285.054 71.6872 287.989 75.0711 289.492 77.3782C291.915 81.0992 292.214 82.5629 292.162 90.3888C292.097 99.7781 289.759 106.743 285.326 110.753C281.998 113.764 275.43 113.287 272.445 109.816C269.673 106.595 268.873 106.315 268.873 108.565C268.873 109.432 270.959 111.611 273.507 113.407C279.22 117.433 280.808 120.669 282.862 132.482C283.749 137.572 284.738 142.578 285.06 143.604C285.947 146.418 283.59 148.473 279.383 148.554C277.312 148.594 274.686 148.991 273.547 149.436C271.929 150.067 272.56 150.407 276.418 150.985C284.163 152.146 290.086 155.312 295.248 161.052C299.988 166.322 300.005 166.368 300.005 173.973C300.005 187.209 295.78 195.473 287.033 199.345C280.212 202.364 273.554 202.682 258.495 200.706C242.694 198.633 239.087 198.488 229.236 199.527C221.457 200.349 221.795 200.642 220.613 192.051L219.97 187.383L224.901 185.383C231.27 182.801 238.489 175.469 242.368 167.644C246.217 159.877 246.826 151.101 245.011 129.563C244.293 121.039 244.051 111.205 244.466 107.335C245.109 101.334 245.637 100.035 248.371 97.7261C262.774 85.5651 272.496 75.4061 276.009 68.8417C277.644 65.7898 278.473 65.9111 282.969 69.8573ZM114.251 72.5897C114.251 72.9911 115.885 74.1986 117.883 75.2744C122.233 77.6157 128.781 85.8275 132.005 92.9823C133.965 97.3309 134.41 97.7811 134.754 95.7717C135.279 92.7146 137.523 91.8588 140.937 93.4138C142.536 94.1431 144.002 94.2582 144.561 93.7001C145.119 93.142 144.11 92.1991 142.068 91.3692C140.181 90.6025 135.835 87.3826 132.411 84.2144C122.075 74.6499 120.938 73.7785 117.53 72.8013C115.726 72.2837 114.251 72.1893 114.251 72.5897ZM-5.34823 74.8003C-0.286166 77.0971 -0.877671 73.3636 -0.492672 105.431C-0.231163 127.148 1.34309 133.822 8.38411 143.056C13.4659 149.721 13.6215 152.009 9.18005 154.717C3.17157 158.379 0.690346 157.587 -4.68096 150.297C-10.6635 142.177 -12.5812 138.419 -15.3914 129.303C-17.9515 121 -18.4994 107.325 -16.5132 101.31C-15.8241 99.221 -15.5118 97.2593 -15.82 96.9512C-16.1282 96.6421 -17.1421 99.0073 -18.0729 102.208C-19.8537 108.333 -20.6122 109.019 -22.751 106.443C-24.7196 104.072 -25.0122 105.217 -23.3104 108.634C-22.4833 110.295 -20.8654 116.79 -19.7156 123.066C-18.5658 129.342 -17.1836 135.951 -16.645 137.753C-15.4412 141.78 -10.8555 149.813 -6.91311 154.801C-1.92784 161.108 -2.41455 162.629 -12.3529 171.798C-17.2043 176.275 -23.2253 180.846 -25.7324 181.958C-32.1975 184.826 -39.7885 184.034 -50.2343 179.403C-54.8024 177.378 -60.6397 175.396 -63.206 174.999C-76.2109 172.983 -87.9009 167.146 -91.6544 160.794C-95.4204 154.421 -91.8765 139.736 -87.4578 143.404C-86.5145 144.186 -86.336 142.998 -86.7096 138.416C-87.326 130.846 -84.849 125.197 -80.8433 125.038C-79.4164 124.981 -74.0306 124.603 -68.8762 124.2C-58.777 123.407 -55.0536 124.196 -51.0085 127.984C-49.7238 129.186 -48.6674 129.973 -48.6611 129.73C-48.6539 129.488 -48.5366 123.444 -48.4017 116.297C-48.1682 103.988 -47.9783 102.949 -44.8143 96.5871C-42.9775 92.8931 -40.0531 88.3732 -38.318 86.5433C-33.147 81.094 -17.2375 73.0233 -11.3152 72.8459C-10.4591 72.82 -7.77445 73.6997 -5.34823 74.8003ZM317.531 99.4658C323.332 105.296 328.436 129.29 323.875 129.29C321.596 129.29 319.133 123.447 316.225 111.136C314.808 105.145 313.331 99.4274 312.942 98.4284C311.866 95.6638 314.295 96.2137 317.531 99.4658ZM-150.218 101.284C-150.035 102.428 -150.936 105.061 -152.221 107.139C-155.72 112.799 -157.587 119.93 -158.311 130.412C-158.998 140.331 -160.904 145.242 -162.908 142.252C-163.512 141.352 -163.788 135.697 -163.567 128.771C-163.138 115.297 -161.041 108.25 -155.446 101.468C-152.159 97.4844 -150.834 97.4388 -150.218 101.284ZM-123.65 99.3413C-121.752 99.8507 -121.315 100.699 -121.315 103.883C-121.315 107.196 -121.714 107.9 -123.912 108.45C-128.011 109.48 -135.843 117.563 -135.843 120.765C-135.843 126.03 -137.847 128.448 -144.003 130.611C-147.22 131.741 -150.635 132.994 -151.592 133.394C-155.376 134.977 -154.272 122.308 -149.803 112.872C-147.26 107.503 -146.285 106.524 -140.622 103.661C-131.271 98.9316 -128.148 98.1369 -123.65 99.3413ZM215.574 126.379C215.21 126.744 214.911 127.917 214.911 128.986C214.911 130.055 213.966 132.78 212.811 135.042C210.93 138.729 209.228 139.898 196.38 146.332C171.596 158.744 158.975 162.867 143.048 163.755C131.4 164.405 130.948 163.976 135.969 157.046C139.244 152.527 143.106 145.274 145.774 138.626L147.44 134.477L144.993 137.432C143.647 139.058 140.394 144.251 137.765 148.972C132.341 158.709 127.397 163.623 122.009 164.633C119.974 165.015 110.709 164.74 101.421 164.022C92.1344 163.303 80.7068 162.937 76.0287 163.208C66.2647 163.773 64.3044 162.771 66.3581 158.266C67.9292 154.819 76.6078 145.555 80.5242 143.144C82.2365 142.09 82.9369 141.239 82.0808 141.253C81.2247 141.267 78.6895 142.665 76.448 144.361C71.4378 148.151 70.9148 148.167 69.4298 144.591C68.2769 141.814 68.226 141.878 67.5152 147.001C66.4069 155.004 63.9454 159.099 55.2627 167.385C48.8619 173.494 26.8039 188.939 24.4804 188.939C24.1722 188.939 20.1696 191.156 15.5849 193.866C11.0002 196.577 5.79704 199.644 4.02252 200.684C-2.7186 204.631 -14.0216 214.242 -16.729 218.327C-20.1702 223.52 -23.1526 224.85 -26.4744 222.675C-29.5399 220.667 -30.615 220.655 -28.9608 222.648C-28.252 223.502 -25.9161 224.726 -23.768 225.369C-20.1899 226.441 -19.8122 226.917 -19.2424 231.072C-18.2607 238.234 -14.2406 245.031 -8.57453 249.109C-3.53218 252.737 -3.53115 252.737 10.4772 253.269C20.8919 253.664 25.1518 254.23 27.081 255.473C28.5078 256.394 32.0102 257.702 34.8639 258.38C37.7177 259.06 41.1111 260.3 42.4051 261.138C44.3675 262.41 44.5688 263.015 43.6183 264.791C41.5117 268.726 43.7729 268.282 47.7464 263.981C53.1156 258.167 54.7656 257.851 63.4317 260.976C73.6025 264.644 76.6286 264.369 68.8518 260.484C62.8163 257.469 62.5019 257.117 61.2691 251.983C59.4395 244.357 59.7768 241.163 62.9128 236.426L65.6691 232.262L71.8021 232.955C88.9527 234.895 126.175 226.376 145.692 216.044C151.892 212.762 154.923 211.764 158.663 211.776C164.382 211.794 165.337 212.281 176.555 220.884C181.237 224.477 185.269 227.214 185.514 226.97C185.759 226.726 183.367 223.471 180.198 219.738C177.031 216.006 174.439 212.748 174.439 212.5C174.439 212.252 177.164 211.802 180.494 211.5C183.824 211.199 188.544 210.083 190.982 209.022L195.414 207.093L177.065 207.439C158.521 207.789 145.746 206.713 134.631 203.866C131.286 203.01 128.299 202.558 127.994 202.863C127.274 203.583 138.098 208.625 140.392 208.638C144.4 208.662 142.992 210.852 137.038 213.857C121.658 221.618 98.1159 227.952 80.7982 228.987C71.3704 229.551 71.0393 229.491 63.6413 225.879C57.4388 222.851 56.2869 222.549 57.1607 224.182C57.746 225.275 58.6882 226.455 59.2559 226.806C62.8807 229.045 55.8874 232.4 45.2413 233.53L37.9771 234.301L48.2165 234.442C58.3385 234.581 58.4464 234.61 57.7055 236.917C57.2935 238.201 56.73 242.519 56.454 246.513C55.8563 255.164 54.7355 256.378 47.378 256.343C36.5285 256.292 28.3107 252.628 28.9738 248.137C29.3058 245.885 29.2737 245.88 25.8606 247.65C23.5838 248.83 19.0468 249.602 12.5122 249.919C3.41543 250.361 2.18468 250.183 -2.65946 247.729C-12.355 242.819 -16.0472 235.108 -13.4031 225.293C-10.6988 215.255 -4.89783 210.194 20.6646 195.579C32.9058 188.58 48.8287 178.956 57.1752 173.512C63.1982 169.584 71.6609 166.207 75.6282 166.151C80.3405 166.083 84.9439 168.904 86.8523 173.028C89.3678 178.462 96.469 188.939 97.6375 188.939C98.1605 188.939 97.4475 186.487 96.0528 183.493C92.3564 175.557 92.6262 173.027 97.3874 170.997C103.439 168.42 106.751 168.105 117.364 169.105C142.31 171.454 159.497 167.185 197.269 149.263C202.121 146.961 206.557 145.105 207.128 145.139C213.585 145.525 227.467 147.983 229.698 149.136C231.317 149.972 232.552 150.16 232.552 149.57C232.552 147.64 227.918 145.498 222.175 144.774C213.023 143.619 212.641 143.197 215.555 137.444C216.912 134.763 218.024 131.276 218.024 129.695C218.024 126.799 216.805 125.149 215.574 126.379ZM-133.232 136.084C-132.705 137.747 -133.823 139.424 -138.363 143.785C-144.896 150.061 -149.308 158.356 -149.323 164.395C-149.335 168.582 -152.28 172.237 -155.701 172.307C-158.226 172.357 -160.752 166.039 -160.726 159.736C-160.683 149.398 -155.936 142.649 -144.757 137.037C-137.479 133.383 -134.177 133.11 -133.232 136.084ZM-124.578 144.173C-120.585 147.292 -106.439 152.631 -102.169 152.631C-98.0842 152.631 -98.2721 154.07 -103.183 160.391C-105.735 163.678 -107.824 166.776 -107.824 167.279C-107.824 169.572 -113.333 167.898 -117.161 164.44C-124.023 158.242 -121.842 162.018 -114.155 169.645C-109.746 174.017 -106.764 177.9 -106.394 179.747C-105.255 185.443 -100.565 193.778 -95.7597 198.651C-89.9557 204.537 -84.741 207.736 -89.8197 202.295C-95.7421 195.95 -101.219 186.277 -102.617 179.692C-104.279 171.858 -103.384 164.454 -100.389 161.266L-98.1579 158.892L-93.9105 162.799C-84.0292 171.892 -72.7324 177.528 -64.3911 177.528C-60.2142 177.528 -51.1579 181.193 -46.6106 184.723L-44.0276 186.727L-46.7372 187.757C-48.2263 188.324 -53.3579 189.405 -58.1398 190.16L-66.8339 191.532L-59.74 191.841C-55.8381 192.01 -48.8842 191.441 -44.2871 190.574C-39.6889 189.706 -35.5265 189.245 -35.0367 189.548C-33.1999 190.683 -34.2667 196.895 -37.1568 201.906C-47.8859 220.501 -76.9217 233.397 -95.7441 227.927C-107.868 224.404 -119.989 215.264 -123.829 206.751C-125.514 203.018 -128.579 199.054 -128.579 200.609C-128.579 202.296 -123.679 211.829 -121.171 215.022C-119.537 217.101 -118.202 219.07 -118.202 219.399C-118.202 220.405 -121.611 218.824 -126.317 215.635C-132.506 211.442 -132.759 212.597 -126.65 217.156C-120.892 221.453 -113.8 225.247 -111.523 225.247C-110.657 225.247 -108.421 226.183 -106.552 227.328C-104.683 228.473 -100.469 230.168 -97.1876 231.095C-93.9063 232.023 -91.2207 233.148 -91.2207 233.595C-91.2207 234.043 -92.5043 235.367 -94.0744 236.538C-98.7619 240.034 -93.9146 239.287 -88.7955 235.725C-85.8981 233.708 -82.5961 232.499 -78.7679 232.054C-75.6287 231.69 -68.2868 229.775 -62.4526 227.8C-47.7625 222.827 -46.0678 223.062 -48.5978 229.717C-50.6878 235.21 -69.3214 242.609 -83.6078 243.617C-92.0311 244.212 -110.954 242.763 -121.726 240.7C-132.126 238.707 -140.807 232.562 -145.221 224.065C-149.683 215.478 -154.702 197.904 -154.808 190.495C-154.916 182.937 -152.673 176.579 -148.748 173.323C-147.177 172.019 -146.782 172.142 -145.3 174.387C-142.373 178.822 -138.801 182.725 -136.58 183.913C-134.49 185.031 -134.495 184.964 -136.767 181.556C-145.377 168.643 -146.261 159.864 -139.851 150.937C-136.817 146.71 -130.592 141.22 -128.834 141.22C-128.573 141.22 -126.657 142.549 -124.578 144.173ZM-41.4095 156.871C-46.2692 158.157 -50.8694 158.726 -53.6568 158.386C-56.3808 158.054 -57.8804 158.231 -57.5037 158.84C-56.6548 160.214 -50.5343 161.688 -42.1483 162.54C-37.3249 163.029 -33.9565 164.033 -31.4649 165.724C-26.4433 169.13 -24.8566 168.816 -28.4015 165.117C-32.515 160.825 -30.782 158.855 -22.8911 158.855C-17.2676 158.855 -17.1566 158.801 -19.451 157.195C-23.0841 154.651 -32.4943 154.512 -41.4095 156.871ZM-34.1453 159.374C-34.1453 161.118 -35.4041 161.275 -40.5014 160.172L-44.0038 159.413L-39.8529 158.763C-37.5698 158.405 -35.3512 158.046 -34.9236 157.965C-34.4961 157.884 -34.1453 158.518 -34.1453 159.374ZM259.48 167.314C258.668 169.775 256.527 173.723 254.723 176.085C251.094 180.837 248.784 184.789 249.635 184.789C249.939 184.789 251.94 183.221 254.082 181.305C260.602 175.471 268.551 173.977 279.743 176.484C282.477 177.097 284.922 177.39 285.177 177.136C286.394 175.919 275.785 171.185 270.311 170.502C264.73 169.804 264.083 169.452 262.589 166.289L260.958 162.838L259.48 167.314ZM91.4204 173.501C91.4204 174.071 90.9534 174.25 90.3827 173.897C89.8119 173.544 89.3449 172.789 89.3449 172.218C89.3449 171.648 89.8119 171.469 90.3827 171.822C90.9534 172.175 91.4204 172.93 91.4204 173.501ZM271.986 233.943C271.986 234.162 271.051 234.585 269.909 234.884C268.767 235.183 268.093 235.003 268.414 234.486C268.972 233.583 271.986 233.124 271.986 233.943ZM257.677 241.424C252.684 244.253 248.906 245.464 241.592 246.577C228.266 248.605 225.88 248.252 237.741 246.007C246.978 244.259 257.016 241.065 260.571 238.744C261.427 238.185 262.595 237.727 263.165 237.727C263.736 237.727 261.266 239.391 257.677 241.424ZM253.307 240.211C249.991 241.995 239.504 244.334 237.627 243.709C236.838 243.445 240.161 242.273 245.009 241.103C255.707 238.521 256.634 238.421 253.307 240.211ZM270.933 241.914C260.598 249.941 247.801 254.343 227.363 256.9C220.229 257.792 213.038 258.971 211.383 259.52C207.482 260.813 204.845 260.825 206.142 259.543C206.685 259.008 211.603 257.852 217.074 256.975C229.666 254.958 238.008 253.177 237.454 252.624C236.317 251.486 203.935 257.227 196.75 259.84C187.647 263.15 179.519 267.557 172.364 273.058C167.011 277.174 152.033 284.922 144.637 287.4C136.267 290.206 130.152 290.13 118.385 287.075C111.704 285.34 107.991 283.778 106.132 281.919C102.197 277.986 103.968 277.599 109.59 281.165C115.755 285.073 124.201 286.873 132.938 286.142C139.039 285.632 142.044 284.813 152.141 280.915C153.861 280.252 158.531 277.425 162.519 274.635C183.083 260.242 208.891 251.22 234.109 249.606C239.816 249.241 246.247 248.278 248.398 247.468C253.781 245.44 254.535 245.693 250.194 248.069C248.196 249.162 247.285 250.076 248.169 250.1C250.031 250.151 266.454 243.024 270.063 240.6C273.41 238.352 274.126 239.435 270.933 241.914ZM202.177 244.546C201.383 245.339 186.652 248.174 186.115 247.637C185.724 247.247 190.533 245.556 194.675 244.626C197.902 243.902 202.874 243.849 202.177 244.546ZM210.241 249.045C191.268 253.863 172.899 262.12 156.455 273.221C146.543 279.913 141.928 281.509 131.421 281.883C122.928 282.186 122.527 282.119 127.222 281.192C138.547 278.954 143.603 276.735 156.93 268.152C176.045 255.843 183.311 252.979 209.203 247.547C220.932 245.087 221.664 246.143 210.241 249.045ZM274.061 248.57C274.061 248.846 271.609 250.302 268.613 251.806C262.587 254.833 262.582 254.232 268.604 250.531C272.45 248.167 274.061 247.588 274.061 248.57ZM254.913 255.249C254.146 256.491 242.966 260.089 235.665 261.443C232.526 262.025 222.486 263.247 213.354 264.158C204.222 265.07 194.895 266.231 192.627 266.738C190.36 267.246 188.356 267.513 188.174 267.332C187.629 266.787 195.586 263.844 199.682 263.076C201.779 262.683 203.496 261.896 203.496 261.328C203.496 260.76 204.18 260.558 205.018 260.879C206.479 261.439 213.708 260.84 236.184 258.291C244.802 257.314 248.309 256.595 255.184 254.396C255.36 254.339 255.239 254.723 254.913 255.249ZM258.064 257.051C253.869 259.322 241.284 263.641 239.058 263.574C238.048 263.544 241.807 261.956 247.409 260.046C253.013 258.136 257.877 256.294 258.219 255.952C258.562 255.61 259.347 255.349 259.966 255.372C260.583 255.395 259.728 256.151 258.064 257.051ZM162.996 258.119C161.585 259.081 158.095 261.795 155.241 264.15C145.451 272.228 134.907 278.19 130.546 278.112C128.673 278.079 128.87 277.806 131.632 276.606C135.709 274.835 143.392 269.681 148.943 264.996C152.952 261.613 162.406 256.368 164.497 256.368C165.082 256.368 164.406 257.155 162.996 258.119ZM260.571 260.492C252.985 266.352 235.624 271.975 220.618 273.431C216.527 273.829 219.197 272.993 228.401 270.998C236.106 269.327 244.045 267.194 246.043 266.257C249.84 264.476 248.798 264.635 239.297 267.291C236.444 268.09 224.769 269.465 213.354 270.349C201.939 271.232 190.965 272.192 188.967 272.479C186.017 272.905 185.761 272.816 187.606 272.005C191.446 270.314 201.244 268.93 217.505 267.779C226.066 267.173 235.873 266.155 239.297 265.518C242.722 264.881 247.234 264.246 249.325 264.107C251.416 263.968 255.152 262.641 257.627 261.158C262.941 257.974 264.199 257.69 260.571 260.492ZM264.722 260.999C264.722 261.264 263.672 261.99 262.387 262.613C260.144 263.699 260.132 263.68 262.066 262.13C264.183 260.435 264.722 260.206 264.722 260.999ZM255.765 269.886C255.178 270.473 250.998 272.568 246.477 274.54C241.958 276.513 238.96 278.14 239.816 278.155C241.2 278.181 241.2 278.295 239.816 279.189C238.96 279.741 236.815 279.929 235.05 279.607C233.284 279.284 225.812 280.079 218.446 281.372C203.063 284.074 176.542 284.817 174.332 282.609C173.358 281.636 176.034 281.366 186.473 281.387C203.912 281.422 225.81 279.502 235.126 277.12C239.197 276.08 245.537 273.825 249.215 272.111C256.853 268.551 257.227 268.424 255.765 269.886ZM224.406 276.337C223.48 277.263 217.115 277.737 202.147 277.997C190.617 278.197 181.572 277.964 182.047 277.478C182.521 276.994 192.094 276.339 203.32 276.026C214.546 275.711 224.176 275.361 224.717 275.248C225.259 275.134 225.12 275.624 224.406 276.337ZM51.9865 277.115C52.8427 277.668 54.2436 278.095 55.0998 278.063C56.1261 278.026 55.9496 277.703 54.5809 277.115C51.7281 275.89 50.0896 275.89 51.9865 277.115ZM232.271 281.891C231.926 282.235 231.031 282.273 230.283 281.973C229.454 281.642 229.7 281.396 230.909 281.346C232.003 281.302 232.615 281.547 232.271 281.891ZM230.477 286.096C226.196 287.501 218.257 289.279 212.835 290.049C199.326 291.965 179.628 292.893 179.628 291.614C179.628 291.056 181.757 290.601 184.359 290.601C187.152 290.601 188.835 290.189 188.467 289.593C188.09 288.986 184.042 288.837 178.223 289.219C172.93 289.566 165.828 289.459 162.44 288.978L156.279 288.105L160.949 287.486C163.517 287.144 171.923 286.769 179.628 286.649C187.333 286.53 198.307 286.201 204.014 285.918C216.49 285.3 215.756 285.996 201.852 287.971L191.562 289.433L200.901 288.899C210.881 288.33 226.917 286.052 232.033 284.476C239.038 282.319 237.679 283.734 230.477 286.096ZM242.929 288.014C238.088 290.612 221.241 296.237 220.504 295.501C220.275 295.271 222.003 294.509 224.345 293.807C230.746 291.89 228.486 291.296 221.512 293.062C215.846 294.498 208.428 295.515 187.2 297.767C174.425 299.123 143.307 294.681 143.307 291.501C143.307 290.083 148.014 290.433 161.986 292.892C184.318 296.822 201.14 296.082 227.058 290.03C234.854 288.21 236.155 288.232 232.033 290.119C230.321 290.904 229.621 291.551 230.477 291.558C231.333 291.565 235.069 290.233 238.779 288.598C247.068 284.942 249.217 284.639 242.929 288.014ZM136.789 294.283C145.336 297.084 162.144 299.876 170.807 299.934C173.661 299.953 176.696 300.466 177.552 301.073C178.675 301.87 176.005 302.027 167.978 301.636C155.923 301.048 152.991 301.966 160.741 303.902C172.582 306.858 198.949 308.588 195.194 306.161C193.998 305.388 194.358 305.152 196.75 305.138C198.463 305.129 203.833 304.401 208.684 303.521C213.536 302.64 219.139 301.745 221.137 301.531C223.135 301.318 227.053 300.16 229.846 298.958C232.637 297.756 235.103 296.955 235.325 297.177C236.099 297.95 225.324 302.042 215.808 304.588C201.474 308.423 187.061 309.699 173.977 308.29C162.174 307.019 149.693 303.689 141.671 299.668C138.86 298.26 134.858 296.798 132.774 296.42C128.954 295.726 126.143 293.581 127.404 292.321C128.304 291.421 127.614 291.278 136.789 294.283ZM237.741 292.675C236.885 293.228 235.717 293.681 235.146 293.681C234.576 293.681 234.809 293.228 235.665 292.675C236.521 292.123 237.689 291.67 238.26 291.67C238.83 291.67 238.597 292.123 237.741 292.675ZM232.555 295.266C231.364 296.7 222.197 299.99 219.651 299.896C218.827 299.865 231.01 294.504 233.457 293.821C233.67 293.762 233.264 294.412 232.555 295.266ZM210.76 309.718C210.76 311.239 197.252 313.776 187.411 314.102C172.527 314.597 175.937 313 193.109 311.433C200.181 310.788 206.19 310.038 206.461 309.766C207.076 309.152 210.76 309.111 210.76 309.718Z" fill="black"/>
</g>
<defs>
<clipPath id="clip0_504_10">
<rect width="250" height="250" fill="white"/>
</clipPath>
</defs>
</svg>
