<svg width="1393" height="895" viewBox="0 0 1393 895" fill="none" xmlns="http://www.w3.org/2000/svg">
<path d="M13.6486 30L14.6138 43.9393L27.2973 45L14.6138 46.0607L13.6486 60L12.6835 46.0607L0 45L12.6835 43.9393L13.6486 30Z" fill="white"/>
<path d="M115.649 60L116.614 73.9393L129.297 75L116.614 76.0607L115.649 90L114.684 76.0607L102 75L114.684 73.9393L115.649 60Z" fill="white"/>
<path d="M259.649 30L260.614 43.9393L273.297 45L260.614 46.0607L259.649 60L258.684 46.0607L246 45L258.684 43.9393L259.649 30Z" fill="white"/>
<path d="M178.649 146L179.614 159.939L192.297 161L179.614 162.061L178.649 176L177.684 162.061L165 161L177.684 159.939L178.649 146Z" fill="white"/>
<path d="M342.649 90L343.614 103.939L356.297 105L343.614 106.061L342.649 120L341.684 106.061L329 105L341.684 103.939L342.649 90Z" fill="white"/>
<path d="M474.649 45L475.614 58.9393L488.297 60L475.614 61.0607L474.649 75L473.684 61.0607L461 60L473.684 58.9393L474.649 45Z" fill="white"/>
<path d="M547.649 0L548.614 13.9393L561.297 15L548.614 16.0607L547.649 30L546.684 16.0607L534 15L546.684 13.9393L547.649 0Z" fill="white"/>
<path d="M644.649 60L645.614 73.9393L658.297 75L645.614 76.0607L644.649 90L643.684 76.0607L631 75L643.684 73.9393L644.649 60Z" fill="white"/>
<path d="M533.649 146L534.614 159.939L547.297 161L534.614 162.061L533.649 176L532.684 162.061L520 161L532.684 159.939L533.649 146Z" fill="white"/>
<path d="M644.649 427L645.614 440.939L658.297 442L645.614 443.061L644.649 457L643.684 443.061L631 442L643.684 440.939L644.649 427Z" fill="white"/>
<path d="M390.649 470L391.614 483.939L404.297 485L391.614 486.061L390.649 500L389.684 486.061L377 485L389.684 483.939L390.649 470Z" fill="white"/>
<path d="M178.649 507L179.614 520.939L192.297 522L179.614 523.061L178.649 537L177.684 523.061L165 522L177.684 520.939L178.649 507Z" fill="white"/>
<path d="M61.6486 470L62.6138 483.939L75.2973 485L62.6138 486.061L61.6486 500L60.6835 486.061L48 485L60.6835 483.939L61.6486 470Z" fill="white"/>
<path d="M628.649 602L629.614 615.939L642.297 617L629.614 618.061L628.649 632L627.684 618.061L615 617L627.684 615.939L628.649 602Z" fill="white"/>
<path d="M300.649 770L301.614 783.939L314.297 785L301.614 786.061L300.649 800L299.684 786.061L287 785L299.684 783.939L300.649 770Z" fill="white"/>
<path d="M506.649 865L507.614 878.939L520.297 880L507.614 881.061L506.649 895L505.684 881.061L493 880L505.684 878.939L506.649 865Z" fill="white"/>
<path d="M1217.65 388L1218.61 401.939L1231.3 403L1218.61 404.061L1217.65 418L1216.68 404.061L1204 403L1216.68 401.939L1217.65 388Z" fill="white"/>
<path d="M1351.65 427L1352.61 440.939L1365.3 442L1352.61 443.061L1351.65 457L1350.68 443.061L1338 442L1350.68 440.939L1351.65 427Z" fill="white"/>
<path d="M732.649 161L733.614 174.939L746.297 176L733.614 177.061L732.649 191L731.684 177.061L719 176L731.684 174.939L732.649 161Z" fill="white"/>
<path d="M814.649 68L815.614 81.9393L828.297 83L815.614 84.0607L814.649 98L813.684 84.0607L801 83L813.684 81.9393L814.649 68Z" fill="white"/>
<path d="M914.649 15L915.614 28.9393L928.297 30L915.614 31.0607L914.649 45L913.684 31.0607L901 30L913.684 28.9393L914.649 15Z" fill="white"/>
<path d="M985.649 116L986.614 129.939L999.297 131L986.614 132.061L985.649 146L984.684 132.061L972 131L984.684 129.939L985.649 116Z" fill="white"/>
<path d="M1070.65 68L1071.61 81.9393L1084.3 83L1071.61 84.0607L1070.65 98L1069.68 84.0607L1057 83L1069.68 81.9393L1070.65 68Z" fill="white"/>
<path d="M1165.65 30L1166.61 43.9393L1179.3 45L1166.61 46.0607L1165.65 60L1164.68 46.0607L1152 45L1164.68 43.9393L1165.65 30Z" fill="white"/>
<path d="M1230.65 98L1231.61 111.939L1244.3 113L1231.61 114.061L1230.65 128L1229.68 114.061L1217 113L1229.68 111.939L1230.65 98Z" fill="white"/>
<path d="M1335.65 45L1336.61 58.9393L1349.3 60L1336.61 61.0607L1335.65 75L1334.68 61.0607L1322 60L1334.68 58.9393L1335.65 45Z" fill="white"/>
<path d="M1378.65 161L1379.61 174.939L1392.3 176L1379.61 177.061L1378.65 191L1377.68 177.061L1365 176L1377.68 174.939L1378.65 161Z" fill="white"/>
<path d="M941.649 230L942.614 243.939L955.297 245L942.614 246.061L941.649 260L940.684 246.061L928 245L940.684 243.939L941.649 230Z" fill="white"/>
<path d="M1151.65 247L1152.61 260.939L1165.3 262L1152.61 263.061L1151.65 277L1150.68 263.061L1138 262L1150.68 260.939L1151.65 247Z" fill="white"/>
<path d="M1293.65 278L1294.61 291.939L1307.3 293L1294.61 294.061L1293.65 308L1292.68 294.061L1280 293L1292.68 291.939L1293.65 278Z" fill="white"/>
<path d="M776.649 277L777.614 290.939L790.297 292L777.614 293.061L776.649 307L775.684 293.061L763 292L775.684 290.939L776.649 277Z" fill="white"/>
<path d="M601.649 305L602.614 318.939L615.297 320L602.614 321.061L601.649 335L600.684 321.061L588 320L600.684 318.939L601.649 305Z" fill="white"/>
<path d="M501.649 277L502.614 290.939L515.297 292L502.614 293.061L501.649 307L500.684 293.061L488 292L500.684 290.939L501.649 277Z" fill="white"/>
<path d="M363.649 293L364.614 306.939L377.297 308L364.614 309.061L363.649 323L362.684 309.061L350 308L362.684 306.939L363.649 293Z" fill="white"/>
<path d="M273.649 290L274.614 303.939L287.297 305L274.614 306.061L273.649 320L272.684 306.061L260 305L272.684 303.939L273.649 290Z" fill="white"/>
<path d="M192.649 308L193.614 321.939L206.297 323L193.614 324.061L192.649 338L191.684 324.061L179 323L191.684 321.939L192.649 308Z" fill="white"/>
<path d="M88.6486 278L89.6138 291.939L102.297 293L89.6138 294.061L88.6486 308L87.6835 294.061L75 293L87.6835 291.939L88.6486 278Z" fill="white"/>
<path d="M13.6486 293L14.6138 306.939L27.2973 308L14.6138 309.061L13.6486 323L12.6835 309.061L0 308L12.6835 306.939L13.6486 293Z" fill="white"/>
<path d="M879.649 412L880.614 425.939L893.297 427L880.614 428.061L879.649 442L878.684 428.061L866 427L878.684 425.939L879.649 412Z" fill="white"/>
</svg>
