<svg width="1401" height="903" viewBox="0 0 1401 903" fill="none" xmlns="http://www.w3.org/2000/svg">
<g filter="url(#filter0_f_306_6)">
<path d="M17.6486 34L18.6138 47.9393L31.2973 49L18.6138 50.0607L17.6486 64L16.6835 50.0607L4 49L16.6835 47.9393L17.6486 34Z" fill="white"/>
<path d="M119.649 64L120.614 77.9393L133.297 79L120.614 80.0607L119.649 94L118.684 80.0607L106 79L118.684 77.9393L119.649 64Z" fill="white"/>
<path d="M263.649 34L264.614 47.9393L277.297 49L264.614 50.0607L263.649 64L262.684 50.0607L250 49L262.684 47.9393L263.649 34Z" fill="white"/>
<path d="M182.649 150L183.614 163.939L196.297 165L183.614 166.061L182.649 180L181.684 166.061L169 165L181.684 163.939L182.649 150Z" fill="white"/>
<path d="M346.649 94L347.614 107.939L360.297 109L347.614 110.061L346.649 124L345.684 110.061L333 109L345.684 107.939L346.649 94Z" fill="white"/>
<path d="M478.649 49L479.614 62.9393L492.297 64L479.614 65.0607L478.649 79L477.684 65.0607L465 64L477.684 62.9393L478.649 49Z" fill="white"/>
<path d="M551.649 4L552.614 17.9393L565.297 19L552.614 20.0607L551.649 34L550.684 20.0607L538 19L550.684 17.9393L551.649 4Z" fill="white"/>
<path d="M648.649 64L649.614 77.9393L662.297 79L649.614 80.0607L648.649 94L647.684 80.0607L635 79L647.684 77.9393L648.649 64Z" fill="white"/>
<path d="M537.649 150L538.614 163.939L551.297 165L538.614 166.061L537.649 180L536.684 166.061L524 165L536.684 163.939L537.649 150Z" fill="white"/>
<path d="M648.649 431L649.614 444.939L662.297 446L649.614 447.061L648.649 461L647.684 447.061L635 446L647.684 444.939L648.649 431Z" fill="white"/>
<path d="M394.649 474L395.614 487.939L408.297 489L395.614 490.061L394.649 504L393.684 490.061L381 489L393.684 487.939L394.649 474Z" fill="white"/>
<path d="M182.649 511L183.614 524.939L196.297 526L183.614 527.061L182.649 541L181.684 527.061L169 526L181.684 524.939L182.649 511Z" fill="white"/>
<path d="M65.6486 474L66.6138 487.939L79.2973 489L66.6138 490.061L65.6486 504L64.6835 490.061L52 489L64.6835 487.939L65.6486 474Z" fill="white"/>
<path d="M632.649 606L633.614 619.939L646.297 621L633.614 622.061L632.649 636L631.684 622.061L619 621L631.684 619.939L632.649 606Z" fill="white"/>
<path d="M304.649 774L305.614 787.939L318.297 789L305.614 790.061L304.649 804L303.684 790.061L291 789L303.684 787.939L304.649 774Z" fill="white"/>
<path d="M510.649 869L511.614 882.939L524.297 884L511.614 885.061L510.649 899L509.684 885.061L497 884L509.684 882.939L510.649 869Z" fill="white"/>
<path d="M1221.65 392L1222.61 405.939L1235.3 407L1222.61 408.061L1221.65 422L1220.68 408.061L1208 407L1220.68 405.939L1221.65 392Z" fill="white"/>
<path d="M1355.65 431L1356.61 444.939L1369.3 446L1356.61 447.061L1355.65 461L1354.68 447.061L1342 446L1354.68 444.939L1355.65 431Z" fill="white"/>
<path d="M736.649 165L737.614 178.939L750.297 180L737.614 181.061L736.649 195L735.684 181.061L723 180L735.684 178.939L736.649 165Z" fill="white"/>
<path d="M818.649 72L819.614 85.9393L832.297 87L819.614 88.0607L818.649 102L817.684 88.0607L805 87L817.684 85.9393L818.649 72Z" fill="white"/>
<path d="M918.649 19L919.614 32.9393L932.297 34L919.614 35.0607L918.649 49L917.684 35.0607L905 34L917.684 32.9393L918.649 19Z" fill="white"/>
<path d="M989.649 120L990.614 133.939L1003.3 135L990.614 136.061L989.649 150L988.684 136.061L976 135L988.684 133.939L989.649 120Z" fill="white"/>
<path d="M1074.65 72L1075.61 85.9393L1088.3 87L1075.61 88.0607L1074.65 102L1073.68 88.0607L1061 87L1073.68 85.9393L1074.65 72Z" fill="white"/>
<path d="M1169.65 34L1170.61 47.9393L1183.3 49L1170.61 50.0607L1169.65 64L1168.68 50.0607L1156 49L1168.68 47.9393L1169.65 34Z" fill="white"/>
<path d="M1234.65 102L1235.61 115.939L1248.3 117L1235.61 118.061L1234.65 132L1233.68 118.061L1221 117L1233.68 115.939L1234.65 102Z" fill="white"/>
<path d="M1339.65 49L1340.61 62.9393L1353.3 64L1340.61 65.0607L1339.65 79L1338.68 65.0607L1326 64L1338.68 62.9393L1339.65 49Z" fill="white"/>
<path d="M1382.65 165L1383.61 178.939L1396.3 180L1383.61 181.061L1382.65 195L1381.68 181.061L1369 180L1381.68 178.939L1382.65 165Z" fill="white"/>
<path d="M945.649 234L946.614 247.939L959.297 249L946.614 250.061L945.649 264L944.684 250.061L932 249L944.684 247.939L945.649 234Z" fill="white"/>
<path d="M1155.65 251L1156.61 264.939L1169.3 266L1156.61 267.061L1155.65 281L1154.68 267.061L1142 266L1154.68 264.939L1155.65 251Z" fill="white"/>
<path d="M1297.65 282L1298.61 295.939L1311.3 297L1298.61 298.061L1297.65 312L1296.68 298.061L1284 297L1296.68 295.939L1297.65 282Z" fill="white"/>
<path d="M780.649 281L781.614 294.939L794.297 296L781.614 297.061L780.649 311L779.684 297.061L767 296L779.684 294.939L780.649 281Z" fill="white"/>
<path d="M605.649 309L606.614 322.939L619.297 324L606.614 325.061L605.649 339L604.684 325.061L592 324L604.684 322.939L605.649 309Z" fill="white"/>
<path d="M505.649 281L506.614 294.939L519.297 296L506.614 297.061L505.649 311L504.684 297.061L492 296L504.684 294.939L505.649 281Z" fill="white"/>
<path d="M367.649 297L368.614 310.939L381.297 312L368.614 313.061L367.649 327L366.684 313.061L354 312L366.684 310.939L367.649 297Z" fill="white"/>
<path d="M277.649 294L278.614 307.939L291.297 309L278.614 310.061L277.649 324L276.684 310.061L264 309L276.684 307.939L277.649 294Z" fill="white"/>
<path d="M196.649 312L197.614 325.939L210.297 327L197.614 328.061L196.649 342L195.684 328.061L183 327L195.684 325.939L196.649 312Z" fill="white"/>
<path d="M92.6486 282L93.6138 295.939L106.297 297L93.6138 298.061L92.6486 312L91.6835 298.061L79 297L91.6835 295.939L92.6486 282Z" fill="white"/>
<path d="M17.6486 297L18.6138 310.939L31.2973 312L18.6138 313.061L17.6486 327L16.6835 313.061L4 312L16.6835 310.939L17.6486 297Z" fill="white"/>
<path d="M874.307 347L875.272 360.939L887.955 362L875.272 363.061L874.307 377L873.342 363.061L860.658 362L873.342 360.939L874.307 347Z" fill="white"/>
</g>
<defs>
<filter id="filter0_f_306_6" x="0" y="0" width="1400.3" height="903" filterUnits="userSpaceOnUse" color-interpolation-filters="sRGB">
<feFlood flood-opacity="0" result="BackgroundImageFix"/>
<feBlend mode="normal" in="SourceGraphic" in2="BackgroundImageFix" result="shape"/>
<feGaussianBlur stdDeviation="2" result="effect1_foregroundBlur_306_6"/>
</filter>
</defs>
</svg>
